<svg width="24" height="24" viewBox="0 0 24 24" fill="none" xmlns="http://www.w3.org/2000/svg">
<path fill-rule="evenodd" clip-rule="evenodd" d="M20.1566 7.94381L19.581 6.94489C19.094 6.09965 18.0147 5.80806 17.1683 6.29305V6.29305C16.7654 6.53039 16.2847 6.59773 15.8321 6.48021C15.3795 6.3627 14.9922 6.06998 14.7557 5.66661C14.6035 5.41022 14.5217 5.1182 14.5186 4.82007V4.82007C14.5324 4.34209 14.352 3.87891 14.0187 3.53604C13.6854 3.19316 13.2275 2.9998 12.7494 3H11.5896C11.1211 2.99999 10.672 3.18667 10.3415 3.51872C10.0111 3.85077 9.82655 4.30081 9.8288 4.76927V4.76927C9.81491 5.73648 9.02684 6.51325 8.05952 6.51315C7.7614 6.51006 7.46937 6.42829 7.21298 6.27612V6.27612C6.36659 5.79113 5.28734 6.08272 4.80034 6.92796L4.18236 7.94381C3.69595 8.78799 3.98357 9.86656 4.82573 10.3565V10.3565C5.37315 10.6725 5.71038 11.2566 5.71038 11.8887C5.71038 12.5208 5.37315 13.1049 4.82573 13.4209V13.4209C3.98464 13.9075 3.6967 14.9835 4.18236 15.8251V15.8251L4.76647 16.8325C4.99465 17.2442 5.3775 17.5481 5.8303 17.6767C6.28309 17.8054 6.76851 17.7484 7.17912 17.5182V17.5182C7.58278 17.2827 8.0638 17.2181 8.51527 17.3389C8.96673 17.4598 9.35123 17.7559 9.5833 18.1616C9.73547 18.418 9.81724 18.71 9.82033 19.0081V19.0081C9.82033 19.9853 10.6125 20.7774 11.5896 20.7774H12.7494C13.7232 20.7774 14.514 19.9904 14.5186 19.0166V19.0166C14.5164 18.5467 14.7021 18.0953 15.0344 17.763C15.3666 17.4307 15.818 17.245 16.2879 17.2473C16.5853 17.2553 16.8762 17.3367 17.1345 17.4843V17.4843C17.9786 17.9708 19.0572 17.6831 19.5471 16.841V16.841L20.1566 15.8251C20.3925 15.4202 20.4573 14.9379 20.3365 14.485C20.2158 14.0322 19.9195 13.6462 19.5132 13.4125V13.4125C19.107 13.1788 18.8107 12.7928 18.69 12.3399C18.5692 11.8871 18.6339 11.4048 18.8699 10.9998C19.0233 10.732 19.2454 10.5099 19.5132 10.3565V10.3565C20.3504 9.86682 20.6373 8.79456 20.1566 7.95227V7.95227V7.94381Z" stroke="#4A4A4A" stroke-width="1.5" stroke-linecap="round" stroke-linejoin="round"/>
<circle cx="12.1744" cy="11.8887" r="2.43804" stroke="#4A4A4A" stroke-width="1.5" stroke-linecap="round" stroke-linejoin="round"/>
</svg>
