<svg width="14" height="14" viewBox="0 0 14 14" fill="none" xmlns="http://www.w3.org/2000/svg">
<g clip-path="url(#clip0_0_124)">
<path d="M0.583496 2.91675H13.4168" stroke="#8A8A8A" stroke-width="0.875" stroke-linecap="round" stroke-linejoin="round"/>
<path d="M8.3125 0.583252H5.6875C5.45544 0.583252 5.23287 0.675442 5.06878 0.839534C4.90469 1.00363 4.8125 1.22619 4.8125 1.45825V2.91659H9.1875V1.45825C9.1875 1.22619 9.09533 1.00363 8.93124 0.839534C8.76715 0.675442 8.54455 0.583252 8.3125 0.583252Z" stroke="#8A8A8A" stroke-width="0.875" stroke-linecap="round" stroke-linejoin="round"/>
<path d="M5.6875 10.3542V5.97925" stroke="#8A8A8A" stroke-width="0.875" stroke-linecap="round" stroke-linejoin="round"/>
<path d="M8.3125 10.3542V5.97925" stroke="#8A8A8A" stroke-width="0.875" stroke-linecap="round" stroke-linejoin="round"/>
<path d="M11.0017 12.6118C10.9855 12.831 10.8867 13.0359 10.7255 13.1853C10.5642 13.3346 10.3523 13.4173 10.1325 13.4167H3.8675C3.64768 13.4173 3.4358 13.3346 3.27452 13.1853C3.11325 13.0359 3.01456 12.831 2.99833 12.6118L2.1875 2.91675H11.8125L11.0017 12.6118Z" stroke="#8A8A8A" stroke-width="0.875" stroke-linecap="round" stroke-linejoin="round"/>
</g>
<defs>
<clipPath id="clip0_0_124">
<rect width="14" height="14" fill="white"/>
</clipPath>
</defs>
</svg>
