<svg width="38" height="38" viewBox="0 0 38 38" fill="none" xmlns="http://www.w3.org/2000/svg">
<path d="M27.1827 23.75C26.3587 25.1931 25.1679 26.3926 23.7308 27.2268C22.2938 28.0611 20.6617 28.5006 19 28.5006C17.3383 28.5006 15.7062 28.0611 14.2691 27.2268C12.8321 26.3926 11.6412 25.1931 10.8173 23.75H4.75C4.12012 23.75 3.51601 24.0002 3.07062 24.4456C2.62523 24.8909 2.375 25.4952 2.375 26.125V33.25C2.375 33.8799 2.62523 34.484 3.07062 34.9294C3.51601 35.3748 4.12012 35.625 4.75 35.625H33.25C33.8799 35.625 34.484 35.3748 34.9294 34.9294C35.3748 34.484 35.625 33.8799 35.625 33.25V26.125C35.625 25.4952 35.3748 24.8909 34.9294 24.4456C34.484 24.0002 33.8799 23.75 33.25 23.75H27.1827Z" stroke="#212121" stroke-width="2.375" stroke-linecap="round" stroke-linejoin="round"/>
<path d="M19 2.375V19" stroke="#212121" stroke-width="2.375" stroke-linecap="round" stroke-linejoin="round"/>
<path d="M24.9375 7.125L19 2.375L13.0625 7.125" stroke="#212121" stroke-width="2.375" stroke-linecap="round" stroke-linejoin="round"/>
</svg>
