<svg width="24" height="24" viewBox="0 0 24 24" fill="none" xmlns="http://www.w3.org/2000/svg">
<path fill-rule="evenodd" clip-rule="evenodd" d="M3.99902 7.11111C3.99902 4.77759 4.02401 4 7.11013 4C10.1963 4 10.2212 4.77759 10.2212 7.11111C10.2212 9.44463 10.2311 10.2222 7.11013 10.2222C3.98918 10.2222 3.99902 9.44463 3.99902 7.11111Z" stroke="white" stroke-width="1.5" stroke-linecap="round" stroke-linejoin="round"/>
<path fill-rule="evenodd" clip-rule="evenodd" d="M13.7769 7.11111C13.7769 4.77759 13.8018 4 16.888 4C19.9741 4 19.9991 4.77759 19.9991 7.11111C19.9991 9.44463 20.0089 10.2222 16.888 10.2222C13.767 10.2222 13.7769 9.44463 13.7769 7.11111Z" stroke="white" stroke-width="1.5" stroke-linecap="round" stroke-linejoin="round"/>
<path fill-rule="evenodd" clip-rule="evenodd" d="M3.99902 16.8889C3.99902 14.5554 4.02401 13.7778 7.11013 13.7778C10.1963 13.7778 10.2212 14.5554 10.2212 16.8889C10.2212 19.2225 10.2311 20.0001 7.11013 20.0001C3.98918 20.0001 3.99902 19.2225 3.99902 16.8889Z" stroke="white" stroke-width="1.5" stroke-linecap="round" stroke-linejoin="round"/>
<path fill-rule="evenodd" clip-rule="evenodd" d="M13.7769 16.8889C13.7769 14.5554 13.8018 13.7778 16.888 13.7778C19.9741 13.7778 19.9991 14.5554 19.9991 16.8889C19.9991 19.2225 20.0089 20.0001 16.888 20.0001C13.767 20.0001 13.7769 19.2225 13.7769 16.8889Z" stroke="white" stroke-width="1.5" stroke-linecap="round" stroke-linejoin="round"/>
</svg>
