<svg width="24" height="24" viewBox="0 0 24 24" fill="none" xmlns="http://www.w3.org/2000/svg">
<path fill-rule="evenodd" clip-rule="evenodd" d="M16.2674 13.5315C16.813 13.5315 17.2708 13.9817 17.1874 14.5204C16.6981 17.6898 13.9849 20.043 10.7126 20.043C7.09217 20.043 4.15771 17.1085 4.15771 13.489C4.15771 10.5068 6.42323 7.72898 8.97386 7.1009C9.52194 6.96558 10.0836 7.35111 10.0836 7.91536C10.0836 11.7383 10.2122 12.7273 10.9381 13.2651C11.6641 13.803 12.5177 13.5315 16.2674 13.5315Z" stroke="#4A4A4A" stroke-width="1.5" stroke-linecap="round" stroke-linejoin="round"/>
<path fill-rule="evenodd" clip-rule="evenodd" d="M19.8363 10.3481C19.8797 7.89191 16.8627 3.93278 13.1861 4.00087C12.9002 4.00597 12.6713 4.24427 12.6585 4.52937C12.5657 6.54894 12.6908 9.16595 12.7606 10.3523C12.7819 10.7217 13.0721 11.0119 13.4406 11.0332C14.6602 11.103 17.3725 11.1983 19.3631 10.897C19.6338 10.8561 19.8321 10.6213 19.8363 10.3481Z" stroke="#4A4A4A" stroke-width="1.5" stroke-linecap="round" stroke-linejoin="round"/>
</svg>
